<svg width="1200" height="920" viewBox="0 0 1200 920" fill="none" xmlns="http://www.w3.org/2000/svg">
  <rect width="1200" height="920" rx="64" fill="#F7FBFF"/>
  <rect x="58" y="58" width="1084" height="804" rx="44" fill="url(#paint0_linear_41_2)"/>
  <circle cx="944" cy="190" r="96" fill="url(#paint1_radial_41_2)"/>
  <circle cx="258" cy="174" r="58" fill="#FFFFFF"/>
  <circle cx="258" cy="174" r="32" fill="#3A86FF"/>
  <circle cx="944" cy="190" r="58" fill="#FFFFFF"/>
  <circle cx="944" cy="190" r="32" fill="#FF8A93"/>
  <path d="M316 174C448 174 520 264 600 352C694 454 760 520 886 520" stroke="#3A86FF" stroke-width="14" stroke-linecap="round" stroke-dasharray="2 26"/>
  <path d="M886 520C828 610 770 672 684 730" stroke="#FF8A93" stroke-width="14" stroke-linecap="round" stroke-dasharray="2 26"/>
  <rect x="178" y="276" width="270" height="164" rx="28" fill="#FFFFFF" fill-opacity="0.84"/>
  <text x="214" y="334" fill="#16304F" font-family="Microsoft YaHei UI, Noto Sans SC, sans-serif" font-size="34" font-weight="700">填写资料</text>
  <text x="214" y="388" fill="#5D6F86" font-family="Microsoft YaHei UI, Noto Sans SC, sans-serif" font-size="24">兴趣、校区、年级和相处偏好</text>
  <rect x="764" y="308" width="250" height="150" rx="28" fill="#FFFFFF" fill-opacity="0.84"/>
  <text x="800" y="364" fill="#16304F" font-family="Microsoft YaHei UI, Noto Sans SC, sans-serif" font-size="32" font-weight="700">本周匹配</text>
  <text x="800" y="414" fill="#5D6F86" font-family="Microsoft YaHei UI, Noto Sans SC, sans-serif" font-size="24">正式结果和状态说明</text>
  <rect x="524" y="596" width="292" height="162" rx="28" fill="#FFFFFF" fill-opacity="0.84"/>
  <text x="560" y="654" fill="#16304F" font-family="Microsoft YaHei UI, Noto Sans SC, sans-serif" font-size="34" font-weight="700">通知提醒</text>
  <text x="560" y="708" fill="#5D6F86" font-family="Microsoft YaHei UI, Noto Sans SC, sans-serif" font-size="24">收到匹配结果和系统公告</text>
  <path d="M94 696C216 656 304 650 394 672C492 696 568 758 676 776C794 796 912 770 1104 674V862H94V696Z" fill="#DCEBFF"/>
  <path d="M104 740C240 704 324 706 418 728C522 752 596 814 704 832C824 850 938 820 1094 744V862H104V740Z" fill="#BFD8FF"/>
  <rect x="232" y="570" width="108" height="186" rx="18" fill="#77ADFF"/>
  <rect x="360" y="522" width="120" height="234" rx="18" fill="#5A98FF"/>
  <rect x="854" y="560" width="102" height="196" rx="18" fill="#8CB9FF"/>
  <rect x="982" y="526" width="112" height="230" rx="18" fill="#6EA7FF"/>
  <path d="M598 132C616 96 664 94 686 126C696 140 700 158 700 174C700 214 668 240 644 264C620 240 588 214 588 174C588 160 590 146 598 132Z" fill="#FF8A93"/>
  <defs>
    <linearGradient id="paint0_linear_41_2" x1="600" y1="58" x2="600" y2="862" gradientUnits="userSpaceOnUse">
      <stop stop-color="#F8FBFF"/>
      <stop offset="1" stop-color="#EAF2FF"/>
    </linearGradient>
    <radialGradient id="paint1_radial_41_2" cx="0" cy="0" r="1" gradientUnits="userSpaceOnUse" gradientTransform="translate(944 190) rotate(90) scale(96)">
      <stop stop-color="#FFD0D5"/>
      <stop offset="1" stop-color="#FFD0D5" stop-opacity="0"/>
    </radialGradient>
  </defs>
</svg>
