<svg width="1200" height="1600" viewBox="0 0 1200 1600" fill="none" xmlns="http://www.w3.org/2000/svg">
  <rect width="1200" height="1600" rx="80" fill="#EEF6FF"/>
  <rect x="72" y="72" width="1056" height="1456" rx="56" fill="url(#paint0_linear_205_11)"/>
  <circle cx="292" cy="274" r="132" fill="url(#paint1_radial_205_11)"/>
  <circle cx="888" cy="1224" r="158" fill="url(#paint2_radial_205_11)"/>
  <path d="M256 282C356 402 450 466 592 540C714 602 788 644 888 760" stroke="#1185E4" stroke-width="16" stroke-linecap="round" stroke-dasharray="2 28"/>
  <path d="M888 760C800 886 720 960 610 1036C518 1102 424 1148 326 1234" stroke="#7ACCF9" stroke-width="16" stroke-linecap="round" stroke-dasharray="2 30"/>
  <path d="M326 1234C430 1336 540 1382 688 1414" stroke="#1185E4" stroke-width="16" stroke-linecap="round" stroke-dasharray="2 28"/>
  <circle cx="256" cy="282" r="58" fill="#FFFFFF"/>
  <circle cx="256" cy="282" r="38" fill="#1185E4"/>
  <circle cx="888" cy="760" r="72" fill="#FFFFFF"/>
  <circle cx="888" cy="760" r="48" fill="#0C6ED2"/>
  <circle cx="326" cy="1234" r="64" fill="#FFFFFF"/>
  <circle cx="326" cy="1234" r="42" fill="#2BA9FF"/>
  <circle cx="688" cy="1414" r="48" fill="#FFFFFF"/>
  <circle cx="688" cy="1414" r="30" fill="#1185E4"/>
  <rect x="174" y="448" width="394" height="204" rx="30" fill="#FFFFFF" fill-opacity="0.68"/>
  <text x="214" y="510" fill="#0D1D3D" font-family="Bahnschrift, Arial Narrow, sans-serif" font-size="38" letter-spacing="2">01</text>
  <text x="214" y="560" fill="#0D1D3D" font-family="Microsoft YaHei UI, Noto Sans SC, sans-serif" font-size="42" font-weight="700">填写资料</text>
  <text x="214" y="620" fill="#5D6C85" font-family="Microsoft YaHei UI, Noto Sans SC, sans-serif" font-size="30">基础信息、偏好与量表留在同一条线上。</text>
  <rect x="624" y="876" width="402" height="204" rx="30" fill="#FFFFFF" fill-opacity="0.72"/>
  <text x="664" y="938" fill="#0D1D3D" font-family="Bahnschrift, Arial Narrow, sans-serif" font-size="38" letter-spacing="2">02</text>
  <text x="664" y="988" fill="#0D1D3D" font-family="Microsoft YaHei UI, Noto Sans SC, sans-serif" font-size="42" font-weight="700">生成匹配</text>
  <text x="664" y="1048" fill="#5D6C85" font-family="Microsoft YaHei UI, Noto Sans SC, sans-serif" font-size="30">结果、解释和后续动作都在匹配页正中表达。</text>
  <rect x="184" y="1312" width="386" height="170" rx="30" fill="#FFFFFF" fill-opacity="0.72"/>
  <text x="224" y="1372" fill="#0D1D3D" font-family="Bahnschrift, Arial Narrow, sans-serif" font-size="38" letter-spacing="2">03</text>
  <text x="224" y="1420" fill="#0D1D3D" font-family="Microsoft YaHei UI, Noto Sans SC, sans-serif" font-size="42" font-weight="700">收到提醒</text>
  <defs>
    <linearGradient id="paint0_linear_205_11" x1="600" y1="72" x2="600" y2="1528" gradientUnits="userSpaceOnUse">
      <stop stop-color="#F7FBFF"/>
      <stop offset="1" stop-color="#E7F1FF"/>
    </linearGradient>
    <radialGradient id="paint1_radial_205_11" cx="0" cy="0" r="1" gradientUnits="userSpaceOnUse" gradientTransform="translate(292 274) rotate(90) scale(132)">
      <stop stop-color="#B4EAFF"/>
      <stop offset="1" stop-color="#B4EAFF" stop-opacity="0"/>
    </radialGradient>
    <radialGradient id="paint2_radial_205_11" cx="0" cy="0" r="1" gradientUnits="userSpaceOnUse" gradientTransform="translate(888 1224) rotate(90) scale(158)">
      <stop stop-color="#94D4FF"/>
      <stop offset="1" stop-color="#94D4FF" stop-opacity="0"/>
    </radialGradient>
  </defs>
</svg>
